Coordinates
version=1
nRows=12
nColumns=38
inDegrees=yes

Units are S.I. units (second, meters, Newtons, ...)
Angles are in degrees.

endheader
time	pelvis_tilt	pelvis_list	pelvis_rotation	pelvis_tx	pelvis_ty	pelvis_tz	hip_flexion_r	hip_adduction_r	hip_rotation_r	knee_angle_r	ankle_angle_r	subtalar_angle_r	mtp_angle_r	hip_flexion_l	hip_adduction_l	hip_rotation_l	knee_angle_l	ankle_angle_l	subtalar_angle_l	mtp_angle_l	lumbar_extension	lumbar_bending	lumbar_rotation	arm_flex_r	arm_add_r	arm_rot_r	elbow_flex_r	pro_sup_r	wrist_flex_r	wrist_dev_r	arm_flex_l	arm_add_l	arm_rot_l	elbow_flex_l	pro_sup_l	wrist_flex_l	wrist_dev_l
      2.08000000	      3.35215621	      0.45598594	      0.66533902	      0.89856456	      0.94364489	     -0.22770411	      4.89378026	      0.51095890	    -13.41575079	    -19.03894009	     12.30523561	     -3.92397730	      0.00000000	     17.96031803	     -2.97432717	     -3.50050658	    -66.69738031	     -1.41739816	     -6.24675296	      0.00000000	    -13.50306875	      3.08585204	     -2.05191789	      3.45335575	     -8.66650550	     44.15027641	     26.81532204	     44.38559383	      0.00000000	      0.00000000	      7.15209378	     -6.62794213	     44.81997373	     29.28787149	     44.38559383	      0.00000000	      0.00000000
      2.09000000	      3.36037788	      0.54004199	      0.36968186	      0.90862995	      0.94454356	     -0.22632606	      3.89730575	      0.49983142	    -13.69227324	    -18.39522892	     12.60475095	     -3.22897425	      0.00000000	     18.79281477	     -2.85966415	     -3.73917443	    -65.17155203	      0.33103333	     -6.28221167	      0.00000000	    -13.58009939	      2.81706847	     -1.60088086	      3.49359484	     -9.07757810	     43.39412718	     28.24913198	     44.41980303	      0.00000000	      0.00000000	      6.67368231	     -6.21431250	     45.29055069	     27.07464991	     44.41980303	      0.00000000	      0.00000000
      2.10000000	      3.26646252	      0.68708245	      0.06753087	      0.91854773	      0.94511866	     -0.22505042	      3.08686780	      0.46534193	    -13.86230708	    -17.85206591	     12.77637241	     -3.16547745	      0.00000000	     19.70773069	     -2.63804260	     -3.92877819	    -63.40937624	      1.66628658	     -6.51152091	      0.00000000	    -13.55356551	      2.49915927	     -1.16595742	      3.84139529	     -9.15904918	     43.25559504	     28.41546831	     44.42277353	      0.00000000	      0.00000000	      5.82139426	     -6.30055812	     45.41605293	     26.77527251	     44.42277353	      0.00000000	      0.00000000
      2.11000000	      3.28828069	      0.82968602	     -0.24846967	      0.92853379	      0.94567596	     -0.22373684	      2.08329180	      0.43524643	    -13.79610978	    -17.21393458	     12.96195545	     -2.92383219	      0.00000000	     20.38680682	     -2.48619220	     -4.16468675	    -61.36011300	      2.79740997	     -6.52209027	      0.00000000	    -13.66238312	      2.13240391	     -0.78191992	      4.22787301	     -9.25923261	     43.09177830	     28.73559391	     44.42694712	      0.00000000	      0.00000000	      4.92208350	     -6.32551659	     45.50636797	     26.29793658	     44.42694712	      0.00000000	      0.00000000
      2.12000000	      3.22390065	      0.91486536	     -0.56450848	      0.93843855	      0.94596097	     -0.22254498	      1.19598297	      0.42288980	    -13.55795779	    -16.53631628	     13.17052586	     -2.54997482	      0.00000000	     21.09751539	     -2.40746523	     -4.44530129	    -59.06968807	      3.65783833	     -6.57658998	      0.00000000	    -13.68982598	      1.85872592	     -0.36048852	      4.59731141	     -9.38674044	     42.96999712	     29.02175123	     44.42977916	      0.00000000	      0.00000000	      4.13057640	     -6.37650779	     45.55157721	     25.86783759	     44.42977916	      0.00000000	      0.00000000
      2.13000000	      3.39484399	      1.04149978	     -0.88317317	      0.94838409	      0.94632203	     -0.22146549	      0.16427971	      0.32188467	    -14.23034658	    -16.19830522	     13.60735435	     -1.97051192	      0.00000000	     21.48793237	     -2.33779054	     -4.81299529	    -56.57310267	      4.00831508	     -6.72053037	      0.00000000	    -14.01205043	      1.54024607	      0.06331394	      4.33304444	    -10.07941894	     41.57306373	     31.93924259	     44.46865948	      0.00000000	      0.00000000	      3.84994332	     -5.70680437	     45.67058192	     22.97822450	     44.46865948	      0.00000000	      0.00000000
      2.14000000	      3.27513543	      1.04793258	     -1.16149208	      0.95816974	      0.94616269	     -0.22038466	     -0.56913628	      0.40461293	    -14.25264961	    -15.77243102	     13.78583350	     -1.89187508	      0.00000000	     22.13854456	     -2.45137732	     -5.29352915	    -53.91274756	      4.03854894	     -6.87407473	      0.00000000	    -13.99050896	      1.36013531	      0.43678519	      4.70169525	    -10.15756335	     41.36641448	     32.10273800	     44.47108739	      0.00000000	      0.00000000	      3.02686219	     -5.82060371	     45.77376941	     22.77578202	     44.47108739	      0.00000000	      0.00000000
      2.15000000	      3.54711974	      1.18932000	     -1.41228684	      0.96816579	      0.94636569	     -0.21945632	     -1.77226052	      0.31757399	    -14.15837341	    -15.24340624	     14.09853809	     -1.63990655	      0.00000000	     22.17323610	     -2.29858015	     -5.65327678	    -50.86997343	      3.73388629	     -7.42548376	      0.00000000	    -14.40136316	      0.99762924	      0.63841900	      5.02435200	    -10.23058237	     40.78615209	     32.81186117	     44.48061349	      0.00000000	      0.00000000	      2.34935666	     -5.87726202	     45.91349916	     22.28660232	     44.48061349	      0.00000000	      0.00000000
      2.16000000	      3.35280867	      1.07275942	     -1.67451714	      0.97803594	      0.94571989	     -0.21849923	     -2.43831845	      0.50937106	    -14.18971753	    -14.76941910	     14.26881025	     -1.45431368	      0.00000000	     22.69851257	     -2.52666986	     -6.11185590	    -47.85444405	      3.66626951	     -7.49374425	      0.00000000	    -14.26481420	      0.94196039	      1.02816367	      5.37057475	    -10.36203419	     40.60029021	     33.06543095	     44.48296121	      0.00000000	      0.00000000	      1.49086895	     -5.92675504	     45.96410858	     21.99191485	     44.48296121	      0.00000000	      0.00000000
      2.17000000	      3.55985267	      1.08582490	     -1.93476280	      0.98812146	      0.94539284	     -0.21787853	     -3.53697166	      0.48618197	    -14.28717520	    -14.36467251	     14.71129805	     -0.87971910	      0.00000000	     22.63850599	     -2.51571291	     -6.48707204	    -44.54926965	      3.46541310	     -7.51161997	      0.00000000	    -14.62900776	      0.82675597	      1.32165118	      4.06913045	    -10.99584156	     36.01176385	     37.99142909	     44.55529711	      0.00000000	      0.00000000	      1.21414126	     -5.32736162	     46.22306139	     19.56584132	     44.55529711	      0.00000000	      0.00000000
      2.18000000	      3.67811972	      1.02641271	     -2.16341682	      0.99837730	      0.94480394	     -0.21724361	     -4.61771138	      0.61788289	    -14.09721413	    -13.75479810	     15.00206329	     -0.87560048	      0.00000000	     22.62992038	     -2.58503546	     -6.91263115	    -41.25852734	      3.11801138	     -7.54288745	      0.00000000	    -14.80741065	      0.72979090	      1.53961715	      4.45267378	    -10.92673223	     35.45321884	     38.17835294	     44.56222520	      0.00000000	      0.00000000	      0.37473594	     -5.47877890	     46.37832889	     19.55740696	     44.56222520	      0.00000000	      0.00000000
      2.19000000	      3.58072529	      0.86633291	     -2.38469966	      1.00858149	      0.94375462	     -0.21664724	     -5.40041715	      0.81918295	    -14.17181685	    -13.36103034	     15.12959219	     -0.70800819	      0.00000000	     22.85256339	     -2.80769369	     -7.45714383	    -37.98510968	      2.87292325	     -7.31464774	      0.00000000	    -14.74538887	      0.75374269	      1.77449756	      4.73085610	    -10.99432917	     35.25295484	     38.36266785	     44.56477900	      0.00000000	      0.00000000	     -0.48057184	     -5.49335711	     46.41880657	     19.37409576	     44.56477900	      0.00000000	      0.00000000
